<svg xmlns="http://www.w3.org/2000/svg" width="15" height="15" viewBox="0 0 15 15">
  <g id="ico_clock" transform="translate(-0.002)">
    <path id="パス_2" data-name="パス 2" d="M7.5,0A7.5,7.5,0,1,0,15,7.5,7.508,7.508,0,0,0,7.5,0Zm0,13.925A6.425,6.425,0,1,1,13.927,7.5,6.432,6.432,0,0,1,7.5,13.925Z" fill="#f36178"/>
    <path id="パス_3" data-name="パス 3" d="M98.871,46.024H95.346V42.172a.538.538,0,1,0-1.075,0v4.39a.538.538,0,0,0,.538.538h4.062a.538.538,0,0,0,0-1.075Z" transform="translate(-87.512 -38.65)" fill="#f36178"/>
  </g>
</svg>
