<svg id="ico_calender" xmlns="http://www.w3.org/2000/svg" width="15" height="15" viewBox="0 0 15 15">
  <g id="グループ_7" data-name="グループ 7" transform="translate(3.75 6.75)">
    <g id="グループ_6" data-name="グループ 6">
      <rect id="長方形_9" data-name="長方形 9" width="1.5" height="1.5" fill="#f36178"/>
    </g>
  </g>
  <g id="グループ_9" data-name="グループ 9" transform="translate(6.75 6.75)">
    <g id="グループ_8" data-name="グループ 8">
      <rect id="長方形_10" data-name="長方形 10" width="1.5" height="1.5" fill="#f36178"/>
    </g>
  </g>
  <g id="グループ_11" data-name="グループ 11" transform="translate(9.75 6.75)">
    <g id="グループ_10" data-name="グループ 10">
      <rect id="長方形_11" data-name="長方形 11" width="1.5" height="1.5" fill="#f36178"/>
    </g>
  </g>
  <g id="グループ_13" data-name="グループ 13" transform="translate(3.75 9.75)">
    <g id="グループ_12" data-name="グループ 12">
      <rect id="長方形_12" data-name="長方形 12" width="1.5" height="1.5" fill="#f36178"/>
    </g>
  </g>
  <g id="グループ_15" data-name="グループ 15" transform="translate(6.75 9.75)">
    <g id="グループ_14" data-name="グループ 14">
      <rect id="長方形_13" data-name="長方形 13" width="1.5" height="1.5" fill="#f36178"/>
    </g>
  </g>
  <g id="グループ_17" data-name="グループ 17" transform="translate(9.75 9.75)">
    <g id="グループ_16" data-name="グループ 16">
      <rect id="長方形_14" data-name="長方形 14" width="1.5" height="1.5" fill="#f36178"/>
    </g>
  </g>
  <g id="グループ_19" data-name="グループ 19">
    <g id="グループ_18" data-name="グループ 18">
      <path id="パス_1" data-name="パス 1" d="M14.25,1.5h-1.5V.75a.75.75,0,1,0-1.5,0V1.5H3.75V.75A.709.709,0,0,0,3,0a.709.709,0,0,0-.75.75V1.5H.75A.709.709,0,0,0,0,2.25v12A.709.709,0,0,0,.75,15h13.5a.752.752,0,0,0,.75-.75v-12A.752.752,0,0,0,14.25,1.5Zm-.75,12H1.5v-9h12v9Z" fill="#f36178"/>
    </g>
  </g>
</svg>
