<svg xmlns="http://www.w3.org/2000/svg" width="19.5" height="19.5" viewBox="0 0 19.5 19.5">
  <g id="ico_clock-orange" transform="translate(-0.002)">
    <path id="パス_2" data-name="パス 2" d="M9.752,0A9.75,9.75,0,1,0,19.5,9.75,9.761,9.761,0,0,0,9.752,0Zm0,18.1A8.352,8.352,0,1,1,18.1,9.75,8.362,8.362,0,0,1,9.752,18.1Z" fill="#efaf38"/>
    <path id="パス_3" data-name="パス 3" d="M100.251,47.341H95.669V42.333a.7.7,0,1,0-1.4,0V48.04a.7.7,0,0,0,.7.7h5.281a.7.7,0,0,0,0-1.4Z" transform="translate(-85.485 -37.755)" fill="#efaf38"/>
  </g>
</svg>
