<svg xmlns="http://www.w3.org/2000/svg" width="352.008" height="110.487" viewBox="0 0 352.008 110.487">
  <path id="_logo-mk-pink" data-name="/logo-mk-pink" d="M165.628.5V109.987h-35.9c-.6-22.134.6-46.071,0-68.205-8.974,22.134-19.745,46.071-28.718,68.205h-35.9q-13.462-33.2-26.923-66.41H36.4v66.41H.5Q1.4,55.25,2.295.5H54.346Q68.7,33.7,83.064,66.91h1.795Q98.32,33.709,111.782.5Zm57.436,0V39.987L246.4,41.782,300.244.5H350.5C327.169,19.644,302.037,37,278.705,56.141c23.332,17.349,48.463,36.5,71.795,53.846H298.449L246.4,70.5H223.064v39.487h-35.9Q188.063,55.25,188.962.5Z" transform="translate(0.008)" fill="#fff" stroke="#f36178" stroke-width="1" fill-rule="evenodd" opacity="0.5"/>
</svg>
