<svg xmlns="http://www.w3.org/2000/svg" width="1002.008" height="313.821" viewBox="0 0 1002.008 313.821">
  <path id="logo-mk" d="M472.295.5V313.321H369.731c-1.708-63.241,1.708-131.631,0-194.872-25.641,63.241-56.415,131.631-82.051,194.872H185.115q-38.462-94.862-76.923-189.744h-5.128V313.321H.5Q3.062,156.928,5.628.5H154.346Q195.369,95.362,236.4,190.244h5.128Q279.987,95.382,318.449.5ZM636.4.5V113.321l66.667,5.128L856.91.5H1000.5C933.839,55.2,862.033,104.777,795.372,159.474c66.662,49.569,138.467,104.277,205.128,153.846H851.782L703.064,200.5H636.4V313.321H533.833Q536.395,156.928,538.961.5Z" transform="translate(0.008)" fill="#fff" stroke="#efaf38" stroke-width="1" fill-rule="evenodd"/>
</svg>
